<?xml version="1.0" encoding="UTF-8" standalone="no"?>
<svg
   xmlns:dc="http://purl.org/dc/elements/1.1/"
   xmlns:cc="http://creativecommons.org/ns#"
   xmlns:rdf="http://www.w3.org/1999/02/22-rdf-syntax-ns#"
   xmlns:svg="http://www.w3.org/2000/svg"
   xmlns="http://www.w3.org/2000/svg"
   xmlns:sodipodi="http://sodipodi.sourceforge.net/DTD/sodipodi-0.dtd"
   xmlns:inkscape="http://www.inkscape.org/namespaces/inkscape"
   version="1.0"
   x="0px"
   y="0px"
   width="48"
   height="30"
   viewBox="0 0 48 29.999999"
   enable-background="new 0 0 84.348 84.592"
   xml:space="preserve"
   id="svg2"
   inkscape:version="0.91 r13725"
   sodipodi:docname="video.svg"><metadata
     id="metadata140"><rdf:RDF><cc:Work
         rdf:about=""><dc:format>image/svg+xml</dc:format><dc:type
           rdf:resource="http://purl.org/dc/dcmitype/StillImage" /><dc:title></dc:title></cc:Work></rdf:RDF></metadata><defs
     id="defs138" /><sodipodi:namedview
     pagecolor="#ffffff"
     bordercolor="#666666"
     borderopacity="1"
     objecttolerance="10"
     gridtolerance="10"
     guidetolerance="10"
     inkscape:pageopacity="0"
     inkscape:pageshadow="2"
     inkscape:window-width="1855"
     inkscape:window-height="914"
     id="namedview136"
     showgrid="false"
     inkscape:zoom="23.21875"
     inkscape:cx="32"
     inkscape:cy="15"
     inkscape:window-x="0"
     inkscape:window-y="0"
     inkscape:window-maximized="0"
     inkscape:current-layer="svg2" /><g
     id="video"
     transform="matrix(0.92609743,0,0,0.78431373,-14.992406,-18.261178)"><path
       d="m 20.508,57.137 c 0,1.723 1.381,3.121 3.085,3.121 l 37.021,0 c 1.705,0 3.086,-1.398 3.086,-3.121 l 0,-29.458 c 0,-1.725 -1.381,-3.121 -3.086,-3.121 l -37.021,0 c -1.704,0 -3.085,1.396 -3.085,3.121 l 0,29.458 z"
       id="path102"
       inkscape:connector-curvature="0"
       style="clip-rule:evenodd;fill:#07466e;fill-rule:evenodd" /><path
       d="m 61.133,49.682 c 0,1.703 -1.379,3.086 -3.084,3.086 l -7.395,0 c -1.703,0 -3.086,-1.383 -3.086,-3.086 l 0,-14.346 c 0,-1.704 1.383,-3.084 3.086,-3.084 l 7.395,0 c 1.705,0 3.084,1.38 3.084,3.084 l 0,14.346 z"
       id="path104"
       inkscape:connector-curvature="0"
       style="fill:#ffffff" /><path
       d="m 22.87,49.682 c 0,1.703 1.382,3.086 3.085,3.086 l 16.033,0 c 1.703,0 3.084,-1.383 3.084,-3.086 l 0,-14.414 c 0,-1.703 -1.381,-3.085 -3.084,-3.085 l -16.033,0 c -1.703,0 -3.085,1.382 -3.085,3.085 l 0,14.414 z"
       id="path106"
       inkscape:connector-curvature="0"
       style="fill:#ffffff" /><path
       d="m 25.771,29.265 c 0,0.393 -0.318,0.712 -0.711,0.712 l -2.087,0 c -0.393,0 -0.712,-0.319 -0.712,-0.712 l 0,-1.722 c 0,-0.393 0.319,-0.711 0.712,-0.711 l 2.087,0 c 0.393,0 0.711,0.318 0.711,0.711 l 0,1.722 z"
       id="path108"
       inkscape:connector-curvature="0"
       style="fill:#ffffff" /><path
       d="m 31.768,29.265 c 0,0.393 -0.318,0.712 -0.712,0.712 l -2.088,0 c -0.392,0 -0.711,-0.319 -0.711,-0.712 l 0,-1.722 c 0,-0.393 0.319,-0.711 0.711,-0.711 l 2.088,0 c 0.394,0 0.712,0.318 0.712,0.711 l 0,1.722 z"
       id="path110"
       inkscape:connector-curvature="0"
       style="fill:#ffffff" /><path
       d="m 37.762,29.265 c 0,0.393 -0.317,0.712 -0.71,0.712 l -2.089,0 c -0.393,0 -0.71,-0.319 -0.71,-0.712 l 0,-1.722 c 0,-0.393 0.317,-0.711 0.71,-0.711 l 2.089,0 c 0.393,0 0.71,0.318 0.71,0.711 l 0,1.722 z"
       id="path112"
       inkscape:connector-curvature="0"
       style="fill:#ffffff" /><path
       d="m 43.756,29.265 c 0,0.393 -0.318,0.712 -0.71,0.712 l -2.088,0 c -0.394,0 -0.711,-0.319 -0.711,-0.712 l 0,-1.722 c 0,-0.393 0.317,-0.711 0.711,-0.711 l 2.088,0 c 0.392,0 0.71,0.318 0.71,0.711 l 0,1.722 z"
       id="path114"
       inkscape:connector-curvature="0"
       style="fill:#ffffff" /><path
       d="m 49.752,29.265 c 0,0.393 -0.318,0.712 -0.711,0.712 l -2.088,0 c -0.393,0 -0.711,-0.319 -0.711,-0.712 l 0,-1.722 c 0,-0.393 0.318,-0.711 0.711,-0.711 l 2.088,0 c 0.393,0 0.711,0.318 0.711,0.711 l 0,1.722 z"
       id="path116"
       inkscape:connector-curvature="0"
       style="fill:#ffffff" /><path
       d="m 55.748,29.265 c 0,0.393 -0.32,0.712 -0.711,0.712 l -2.09,0 c -0.393,0 -0.709,-0.319 -0.709,-0.712 l 0,-1.722 c 0,-0.393 0.316,-0.711 0.709,-0.711 l 2.09,0 c 0.391,0 0.711,0.318 0.711,0.711 l 0,1.722 z"
       id="path118"
       inkscape:connector-curvature="0"
       style="fill:#ffffff" /><path
       d="m 61.742,29.265 c 0,0.393 -0.318,0.712 -0.711,0.712 l -2.088,0 c -0.393,0 -0.711,-0.319 -0.711,-0.712 l 0,-1.722 c 0,-0.393 0.318,-0.711 0.711,-0.711 l 2.088,0 c 0.393,0 0.711,0.318 0.711,0.711 l 0,1.722 z"
       id="path120"
       inkscape:connector-curvature="0"
       style="fill:#ffffff" /><path
       d="m 26.177,57.61 c 0,0.391 -0.318,0.709 -0.711,0.709 l -2.088,0 c -0.393,0 -0.711,-0.318 -0.711,-0.709 l 0,-1.723 c 0,-0.393 0.318,-0.711 0.711,-0.711 l 2.088,0 c 0.393,0 0.711,0.318 0.711,0.711 l 0,1.723 z"
       id="path122"
       inkscape:connector-curvature="0"
       style="fill:#ffffff" /><path
       d="m 32.172,57.61 c 0,0.391 -0.317,0.709 -0.71,0.709 l -2.089,0 c -0.392,0 -0.711,-0.318 -0.711,-0.709 l 0,-1.723 c 0,-0.393 0.319,-0.711 0.711,-0.711 l 2.089,0 c 0.393,0 0.71,0.318 0.71,0.711 l 0,1.723 z"
       id="path124"
       inkscape:connector-curvature="0"
       style="fill:#ffffff" /><path
       d="m 38.166,57.61 c 0,0.391 -0.317,0.709 -0.709,0.709 l -2.089,0 c -0.393,0 -0.712,-0.318 -0.712,-0.709 l 0,-1.723 c 0,-0.393 0.319,-0.711 0.712,-0.711 l 2.089,0 c 0.392,0 0.709,0.318 0.709,0.711 l 0,1.723 z"
       id="path126"
       inkscape:connector-curvature="0"
       style="fill:#ffffff" /><path
       d="m 44.16,57.61 c 0,0.391 -0.316,0.709 -0.711,0.709 l -2.086,0 c -0.393,0 -0.711,-0.318 -0.711,-0.709 l 0,-1.723 c 0,-0.393 0.318,-0.711 0.711,-0.711 l 2.086,0 c 0.395,0 0.711,0.318 0.711,0.711 l 0,1.723 z"
       id="path128"
       inkscape:connector-curvature="0"
       style="fill:#ffffff" /><path
       d="m 50.156,57.61 c 0,0.391 -0.318,0.709 -0.711,0.709 l -2.088,0 c -0.393,0 -0.711,-0.318 -0.711,-0.709 l 0,-1.723 c 0,-0.393 0.318,-0.711 0.711,-0.711 l 2.088,0 c 0.393,0 0.711,0.318 0.711,0.711 l 0,1.723 z"
       id="path130"
       inkscape:connector-curvature="0"
       style="fill:#ffffff" /><path
       d="m 56.152,57.61 c 0,0.391 -0.318,0.709 -0.711,0.709 l -2.088,0 c -0.393,0 -0.711,-0.318 -0.711,-0.709 l 0,-1.723 c 0,-0.393 0.318,-0.711 0.711,-0.711 l 2.088,0 c 0.393,0 0.711,0.318 0.711,0.711 l 0,1.723 z"
       id="path132"
       inkscape:connector-curvature="0"
       style="fill:#ffffff" /><path
       d="m 62.146,57.61 c 0,0.391 -0.318,0.709 -0.711,0.709 l -2.088,0 c -0.393,0 -0.711,-0.318 -0.711,-0.709 l 0,-1.723 c 0,-0.393 0.318,-0.711 0.711,-0.711 l 2.088,0 c 0.393,0 0.711,0.318 0.711,0.711 l 0,1.723 z"
       id="path134"
       inkscape:connector-curvature="0"
       style="fill:#ffffff" /></g></svg>